<?xml version="1.0" standalone="no"?>
<!DOCTYPE svg PUBLIC "-//W3C//DTD SVG 20010904//EN"
 "http://www.w3.org/TR/2001/REC-SVG-20010904/DTD/svg10.dtd">
<svg version="1.0" xmlns="http://www.w3.org/2000/svg"
 width="1536.000000pt" height="1024.000000pt" viewBox="0 0 1536.000000 1024.000000"
 preserveAspectRatio="xMidYMid meet">
<metadata>
Created by potrace 1.16, written by Peter Selinger 2001-2019
</metadata>
<g transform="translate(0.000000,1024.000000) scale(0.100000,-0.100000)"
fill="#000000" stroke="none">
<path d="M0 5120 l0 -5120 7680 0 7680 0 0 5120 0 5120 -7680 0 -7680 0 0
-5120z m7779 2413 c57 -98 126 -216 153 -263 28 -47 62 -107 78 -135 87 -159
495 -871 534 -933 12 -20 44 -75 71 -122 58 -104 316 -550 438 -758 49 -84 88
-154 86 -156 -6 -5 -2919 -15 -2919 -11 0 2 25 46 56 97 123 207 126 211 184
240 30 15 61 28 69 28 15 0 215 61 381 116 l105 35 430 -3 430 -3 175 -79 c96
-43 257 -116 357 -162 99 -46 184 -84 188 -84 3 0 -3 13 -14 29 -21 29 -365
657 -481 876 -82 156 -122 217 -175 263 -41 36 -188 139 -359 252 -209 138
-316 210 -316 215 0 5 51 96 215 385 178 313 199 350 205 350 3 0 53 -80 109
-177z m-586 -761 c23 -16 112 -71 197 -122 85 -51 161 -98 169 -106 12 -11 2
-34 -65 -151 -103 -179 -259 -443 -276 -465 -11 -15 -698 -252 -706 -243 -3 3
25 55 83 155 20 36 49 85 63 110 40 71 321 571 403 717 41 73 78 132 82 133 5
0 27 -13 50 -28z m-1987 -2062 c90 -31 157 -88 195 -166 30 -60 33 -76 33
-153 0 -66 -5 -97 -21 -133 -32 -70 -103 -141 -176 -174 l-62 -29 -225 0 -225
0 -3 330 c-1 181 -1 334 2 340 2 6 80 9 215 8 180 -2 219 -6 267 -23z m2534
18 c139 -3 147 -4 193 -31 63 -37 97 -90 104 -161 10 -95 -30 -167 -119 -212
l-36 -19 76 -109 76 -109 17 39 c9 21 47 107 84 189 37 83 92 210 122 283 l56
132 113 0 c63 0 117 1 121 3 4 1 33 -59 66 -133 91 -209 143 -328 181 -414
l35 -79 14 34 c96 226 256 592 259 593 2 0 56 -1 121 -4 l118 -5 95 -215 c111
-250 194 -445 194 -454 0 -4 -46 -5 -102 -4 l-102 3 -25 63 -24 62 -154 0
-154 0 -29 -65 -29 -65 -184 0 -184 0 -24 63 -25 62 -157 3 -157 3 -10 -28
c-6 -16 -18 -45 -27 -65 l-16 -38 -197 0 -196 0 -78 125 c-77 123 -78 125
-114 125 -62 0 -64 -4 -60 -133 l3 -117 -97 0 -98 0 0 343 0 342 102 -2 c57
-2 168 -4 248 -5z m2397 -12 c118 -32 197 -114 229 -238 39 -153 -28 -312
-161 -381 -78 -39 -131 -47 -342 -47 l-203 0 0 340 0 340 213 0 c149 0 228 -4
264 -14z m-4237 -204 c19 -9 47 -35 63 -57 28 -40 28 -44 34 -223 l5 -182 -81
0 c-65 0 -81 3 -81 15 0 19 -1 19 -52 -7 -35 -18 -59 -23 -123 -22 -127 0
-195 49 -195 140 0 102 113 164 296 164 58 0 62 2 57 20 -3 11 -15 27 -26 35
-30 21 -132 19 -200 -4 l-55 -19 -25 49 c-25 52 -25 54 23 80 74 39 288 46
360 11z m663 3 c22 -10 51 -36 65 -58 26 -40 27 -45 30 -224 l4 -183 -96 0
-96 0 0 155 c0 142 -2 157 -20 175 -11 11 -23 20 -27 21 -5 0 -19 2 -32 5 -34
6 -88 -14 -106 -39 -12 -17 -15 -54 -15 -170 l0 -148 -92 3 -93 3 0 235 0 235
85 0 c81 0 85 -1 88 -23 l3 -22 28 19 c15 11 42 24 61 30 51 15 168 8 213 -14z
m377 -139 c33 -82 61 -151 63 -152 1 -2 29 61 62 139 32 78 63 148 68 155 12
16 197 17 197 1 0 -12 -81 -187 -214 -461 l-86 -178 -100 0 c-74 0 -100 3
-100 13 1 6 18 41 40 76 l39 64 -28 56 c-71 140 -191 410 -191 427 0 12 18 14
95 12 l96 -3 59 -149z m-211 -576 c15 -8 21 -21 21 -47 0 -32 -2 -35 -22 -28
-144 43 -235 30 -264 -40 -30 -72 13 -133 99 -142 59 -7 97 10 97 42 0 23 -3
25 -51 25 l-50 0 3 33 3 32 80 0 c122 1 116 6 113 -89 l-3 -81 -40 -14 c-23
-8 -83 -14 -140 -15 -88 -1 -105 2 -141 23 -116 66 -111 235 8 297 59 31 233
33 287 4z m911 -69 c24 -17 26 -17 55 1 35 21 143 25 178 7 48 -25 57 -48 57
-156 l0 -103 -50 0 -49 0 -3 87 c-3 82 -5 88 -29 102 -29 16 -69 10 -93 -15
-12 -11 -16 -36 -16 -95 l0 -79 -50 0 -50 0 0 80 c0 67 -3 83 -20 100 -24 24
-67 26 -98 4 -20 -14 -22 -24 -22 -100 l0 -84 -50 0 -50 0 0 135 0 135 40 0
c27 0 43 -5 47 -15 5 -14 8 -14 27 -1 44 28 133 26 176 -3z m-487 5 c55 -22
67 -52 67 -161 l0 -95 -49 0 c-28 0 -52 4 -55 9 -3 5 -23 3 -43 -5 -123 -44
-254 26 -196 105 25 33 75 50 160 53 73 3 85 15 38 37 -23 11 -40 12 -94 2
-63 -12 -66 -11 -83 9 -10 12 -18 26 -18 31 0 27 215 40 273 15z m1204 -12
c31 -23 57 -86 48 -115 -6 -17 -18 -19 -131 -19 -68 0 -124 -4 -124 -8 0 -5
10 -17 21 -28 22 -19 23 -19 179 -11 31 2 35 -1 38 -25 3 -24 -1 -27 -48 -37
-203 -44 -341 47 -281 184 28 63 82 87 188 83 64 -2 88 -8 110 -24z m432 13
c17 -8 25 -21 26 -40 1 -28 -1 -29 -35 -22 -72 13 -145 16 -160 6 -26 -18 1
-30 90 -40 73 -8 88 -13 107 -36 67 -78 -29 -145 -191 -132 -97 7 -106 12
-106 54 0 24 4 34 13 30 6 -2 44 -10 82 -17 54 -9 77 -9 100 0 29 11 29 12 11
26 -11 8 -30 14 -42 14 -47 0 -122 22 -143 41 -33 31 -25 77 18 106 29 20 47
23 120 23 48 0 97 -6 110 -13z"/>
<path d="M4928 4582 c-16 -3 -18 -21 -18 -194 l0 -190 93 4 c148 5 227 58 242
162 14 93 -40 181 -126 204 -45 12 -160 21 -191 14z"/>
<path d="M7580 4504 l0 -86 109 4 c99 3 112 6 135 27 28 26 34 67 16 101 -14
27 -71 40 -172 40 l-88 0 0 -86z"/>
<path d="M8427 4548 c-33 -80 -87 -219 -87 -223 0 -3 43 -5 95 -5 52 0 95 4
95 9 0 8 -88 223 -94 229 -2 1 -6 -3 -9 -10z"/>
<path d="M9186 4488 c-16 -40 -37 -94 -47 -120 l-19 -48 99 0 99 0 -45 113
c-25 61 -48 115 -52 120 -4 4 -20 -25 -35 -65z"/>
<path d="M9873 4582 c-23 -3 -23 -4 -23 -194 l0 -190 103 4 c159 6 222 52 234
170 7 75 -34 153 -97 184 -43 22 -159 35 -217 26z"/>
</g>
</svg>
